<svg xmlns="http://www.w3.org/2000/svg" viewBox="0 0 32 24"><path d="M32,8.16s-1.72,1-4.08,2.14l0,0c-.59.3-1.22.6-1.87.91a53.52,53.52,0,0,1-5.07,2.1,16.6,16.6,0,0,1-2.41.69,17.7,17.7,0,0,1-2.9.29A12.69,12.69,0,0,1,11,13.58a12.45,12.45,0,0,1-3.87-2.26A11.33,11.33,0,0,1,6,10.25c-.17-.19-.34-.38-.5-.58s-.3-.43-.47-.61A12.75,12.75,0,0,0,7.46,11a12.6,12.6,0,0,0,2.84,1.31,12.48,12.48,0,0,0,3.15.56,12.42,12.42,0,0,0,3.49-.32,6.22,6.22,0,0,0,2.61-1.38A7.19,7.19,0,0,0,21.29,9a7.31,7.31,0,0,0,.77-2.79c0-.17,0-.33,0-.5A7.22,7.22,0,0,0,19.55.17L19.25,0l.17.06a12.65,12.65,0,0,1,6.35,4.85,12,12,0,0,1,1.05,1.81,13.66,13.66,0,0,1,.79,2.11l.11,0A9.23,9.23,0,0,1,32,8.16Zm-6.08,4.11-.29.09-.5.19-.28.12,0,0a10,10,0,0,0-1.14.58l-.77.43a30.19,30.19,0,0,1-5.61,2.67,12.32,12.32,0,0,1-4,.68A12.55,12.55,0,0,1,4,13a12.09,12.09,0,0,1-1-1.7,1,1,0,0,1,.05.16h0q.15.42.33.81A12.69,12.69,0,0,0,15,19.81a12.24,12.24,0,0,0,3.17-.41l.39-.11-.45.27A12.51,12.51,0,0,1,13.54,21,12.41,12.41,0,0,1,7.7,19.5a12.8,12.8,0,0,1-4.39-3.95A13.15,13.15,0,0,1,1,8c0-.22,0-.45,0-.67a13.08,13.08,0,0,1,.8-3.92A4.37,4.37,0,0,1,2,3l-.15.24A13.27,13.27,0,0,0,.51,13.57a12.86,12.86,0,0,0,8.55,8.81A12.45,12.45,0,0,0,15.21,24a11.27,11.27,0,0,0,1.85-.14A12.85,12.85,0,0,0,27.84,12.29c0-.16,0-.32,0-.48q-.68.11-1.32.27Z" fill="#2D67F6"/></svg>